<svg width="26" height="26" viewBox="0 0 26 26" fill="none" xmlns="http://www.w3.org/2000/svg">
<path id="Vector" d="M9.1 26C7.84333 26 6.6625 25.7617 5.5575 25.285C4.4525 24.8083 3.48833 24.1583 2.665 23.335C1.84167 22.5117 1.19167 21.5475 0.715 20.4425C0.238333 19.3375 0 18.1567 0 16.9C0 15.145 0.455 13.5417 1.365 12.09C2.275 10.6383 3.46667 9.53333 4.94 8.775C5.37333 7.93 5.90958 7.18792 6.54875 6.54875C7.18792 5.90958 7.93 5.37333 8.775 4.94C9.49 3.46667 10.5842 2.275 12.0575 1.365C13.5308 0.455 15.145 0 16.9 0C18.1567 0 19.3375 0.238333 20.4425 0.715C21.5475 1.19167 22.5117 1.84167 23.335 2.665C24.1583 3.48833 24.8083 4.4525 25.285 5.5575C25.7617 6.6625 26 7.84333 26 9.1C26 10.9417 25.545 12.5667 24.635 13.975C23.725 15.3833 22.5333 16.4667 21.06 17.225C20.6267 18.07 20.0904 18.8121 19.4513 19.4513C18.8121 20.0904 18.07 20.6267 17.225 21.06C16.4667 22.5333 15.3617 23.725 13.91 24.635C12.4583 25.545 10.855 26 9.1 26ZM9.1 23.4C9.815 23.4 10.5029 23.2917 11.1637 23.075C11.8246 22.8583 12.4367 22.5333 13 22.1C11.7433 22.1 10.5625 21.8617 9.4575 21.385C8.3525 20.9083 7.38833 20.2583 6.565 19.435C5.74167 18.6117 5.09167 17.6475 4.615 16.5425C4.13833 15.4375 3.9 14.2567 3.9 13C3.46667 13.5633 3.14167 14.1754 2.925 14.8362C2.70833 15.4971 2.6 16.185 2.6 16.9C2.6 17.81 2.77333 18.655 3.12 19.435C3.46667 20.215 3.9325 20.8975 4.5175 21.4825C5.1025 22.0675 5.785 22.5333 6.565 22.88C7.345 23.2267 8.19 23.4 9.1 23.4ZM13 19.5C13.715 19.5 14.4137 19.3917 15.0962 19.175C15.7787 18.9583 16.4017 18.6333 16.965 18.2C15.6867 18.2 14.495 17.9562 13.39 17.4688C12.285 16.9812 11.3208 16.3258 10.4975 15.5025C9.67417 14.6792 9.01875 13.715 8.53125 12.61C8.04375 11.505 7.8 10.3133 7.8 9.035C7.36667 9.59833 7.04167 10.2212 6.825 10.9037C6.60833 11.5862 6.5 12.285 6.5 13C6.5 13.91 6.66792 14.755 7.00375 15.535C7.33958 16.315 7.81083 16.9975 8.4175 17.5825C9.0025 18.1892 9.685 18.6604 10.465 18.9963C11.245 19.3321 12.09 19.5 13 19.5ZM16.9 15.6C17.29 15.6 17.6637 15.5675 18.0212 15.5025C18.3787 15.4375 18.7417 15.34 19.11 15.21C19.5867 13.91 19.6571 12.6587 19.3212 11.4562C18.9854 10.2537 18.4058 9.24083 17.5825 8.4175C16.7592 7.59417 15.7462 7.01458 14.5437 6.67875C13.3412 6.34292 12.09 6.41333 10.79 6.89C10.66 7.25833 10.5625 7.62125 10.4975 7.97875C10.4325 8.33625 10.4 8.71 10.4 9.1C10.4 10.01 10.5679 10.855 10.9037 11.635C11.2396 12.415 11.7108 13.0975 12.3175 13.6825C12.9025 14.2892 13.585 14.7604 14.365 15.0962C15.145 15.4321 15.99 15.6 16.9 15.6ZM22.1 13.065C22.5333 12.5017 22.8583 11.8787 23.075 11.1962C23.2917 10.5138 23.4 9.815 23.4 9.1C23.4 8.19 23.2321 7.345 22.8962 6.565C22.5604 5.785 22.0892 5.1025 21.4825 4.5175C20.8975 3.91083 20.215 3.43958 19.435 3.10375C18.655 2.76792 17.81 2.6 16.9 2.6C16.1417 2.6 15.4321 2.70833 14.7712 2.925C14.1104 3.14167 13.4983 3.46667 12.935 3.9C14.2133 3.9 15.405 4.14375 16.51 4.63125C17.615 5.11875 18.5792 5.77417 19.4025 6.5975C20.2258 7.42083 20.8812 8.385 21.3687 9.49C21.8562 10.595 22.1 11.7867 22.1 13.065Z" fill="white"/>
</svg>
