<svg width="26" height="26" viewBox="0 0 26 26" fill="none" xmlns="http://www.w3.org/2000/svg">
<path id="Vector" d="M13 26C9.67778 26 6.78287 24.8986 4.31528 22.6958C1.84769 20.4931 0.433333 17.7426 0.0722222 14.4444H3.03333C3.37037 16.9481 4.4838 19.0185 6.37361 20.6556C8.26343 22.2926 10.4722 23.1111 13 23.1111C15.8167 23.1111 18.206 22.1301 20.1681 20.1681C22.1301 18.206 23.1111 15.8167 23.1111 13C23.1111 10.1833 22.1301 7.79398 20.1681 5.83194C18.206 3.86991 15.8167 2.88889 13 2.88889C11.3389 2.88889 9.78611 3.27407 8.34167 4.04444C6.89722 4.81481 5.68148 5.87407 4.69444 7.22222H8.66667V10.1111H0V1.44444H2.88889V4.83889C4.11667 3.29815 5.61528 2.10648 7.38472 1.26389C9.15417 0.421296 11.0259 0 13 0C14.8056 0 16.4968 0.343056 18.0736 1.02917C19.6505 1.71528 21.0227 2.64213 22.1903 3.80972C23.3579 4.97731 24.2847 6.34954 24.9708 7.92639C25.6569 9.50324 26 11.1944 26 13C26 14.8056 25.6569 16.4968 24.9708 18.0736C24.2847 19.6505 23.3579 21.0227 22.1903 22.1903C21.0227 23.3579 19.6505 24.2847 18.0736 24.9708C16.4968 25.6569 14.8056 26 13 26ZM17.0444 19.0667L11.5556 13.5778V5.77778H14.4444V12.4222L19.0667 17.0444L17.0444 19.0667Z" fill="white"/>
</svg>
