<svg width="42" height="42" viewBox="0 0 42 42" fill="none" xmlns="http://www.w3.org/2000/svg">
<g id="search_FILL0_wght400_GRAD0_opsz24 (1) 1">
<path id="Vector" d="M33.9833 36.375L23.2208 25.6125C22.3667 26.2958 21.3844 26.8368 20.274 27.2354C19.1635 27.634 17.9819 27.8333 16.7292 27.8333C13.6257 27.8333 10.9991 26.7585 8.84948 24.6089C6.69983 22.4592 5.625 19.8326 5.625 16.7292C5.625 13.6257 6.69983 10.9991 8.84948 8.84948C10.9991 6.69983 13.6257 5.625 16.7292 5.625C19.8326 5.625 22.4592 6.69983 24.6089 8.84948C26.7585 10.9991 27.8333 13.6257 27.8333 16.7292C27.8333 17.9819 27.634 19.1635 27.2354 20.274C26.8368 21.3844 26.2958 22.3667 25.6125 23.2208L36.375 33.9833L33.9833 36.375ZM16.7292 24.4167C18.8646 24.4167 20.6797 23.6693 22.1745 22.1745C23.6693 20.6797 24.4167 18.8646 24.4167 16.7292C24.4167 14.5938 23.6693 12.7786 22.1745 11.2839C20.6797 9.78906 18.8646 9.04167 16.7292 9.04167C14.5938 9.04167 12.7786 9.78906 11.2839 11.2839C9.78906 12.7786 9.04167 14.5938 9.04167 16.7292C9.04167 18.8646 9.78906 20.6797 11.2839 22.1745C12.7786 23.6693 14.5938 24.4167 16.7292 24.4167Z" fill="white"/>
</g>
</svg>
