<svg width="26" height="26" viewBox="0 0 26 26" fill="none" xmlns="http://www.w3.org/2000/svg">
<path id="Vector" d="M2.88889 21.45C4.18889 20.1741 5.69954 19.169 7.42083 18.4347C9.14213 17.7005 11.0019 17.3333 13 17.3333C14.9981 17.3333 16.8579 17.7005 18.5792 18.4347C20.3005 19.169 21.8111 20.1741 23.1111 21.45V2.88889H2.88889V21.45ZM13 14.4444C14.3963 14.4444 15.588 13.9509 16.575 12.9639C17.562 11.9769 18.0556 10.7852 18.0556 9.38889C18.0556 7.99259 17.562 6.80093 16.575 5.81389C15.588 4.82685 14.3963 4.33333 13 4.33333C11.6037 4.33333 10.412 4.82685 9.425 5.81389C8.43796 6.80093 7.94444 7.99259 7.94444 9.38889C7.94444 10.7852 8.43796 11.9769 9.425 12.9639C10.412 13.9509 11.6037 14.4444 13 14.4444ZM2.88889 26C2.09444 26 1.41435 25.7171 0.848611 25.1514C0.28287 24.5856 0 23.9056 0 23.1111V2.88889C0 2.09444 0.28287 1.41435 0.848611 0.848611C1.41435 0.28287 2.09444 0 2.88889 0H23.1111C23.9056 0 24.5856 0.28287 25.1514 0.848611C25.7171 1.41435 26 2.09444 26 2.88889V23.1111C26 23.9056 25.7171 24.5856 25.1514 25.1514C24.5856 25.7171 23.9056 26 23.1111 26H2.88889ZM5.77778 23.1111H20.2222V22.75C19.2111 21.9074 18.0917 21.2755 16.8639 20.8542C15.6361 20.4329 14.3481 20.2222 13 20.2222C11.6519 20.2222 10.3639 20.4329 9.13611 20.8542C7.90833 21.2755 6.78889 21.9074 5.77778 22.75V23.1111ZM13 11.5556C12.3981 11.5556 11.8866 11.3449 11.4653 10.9236C11.044 10.5023 10.8333 9.99074 10.8333 9.38889C10.8333 8.78704 11.044 8.27546 11.4653 7.85417C11.8866 7.43287 12.3981 7.22222 13 7.22222C13.6019 7.22222 14.1134 7.43287 14.5347 7.85417C14.956 8.27546 15.1667 8.78704 15.1667 9.38889C15.1667 9.99074 14.956 10.5023 14.5347 10.9236C14.1134 11.3449 13.6019 11.5556 13 11.5556Z" fill="white"/>
</svg>
